<svg width="343" height="326" viewBox="0 0 343 326" fill="none" xmlns="http://www.w3.org/2000/svg">
<rect width="343" height="326" fill="#E5E5E5"/>
<rect width="343" height="326" rx="163" fill="white"/>
<mask id="path-2-inside-1" fill="white">
<path d="M284.991 262.141C262.937 281.309 234.936 294.477 204.411 300.036C173.886 305.594 142.158 303.302 113.107 293.44C84.0565 283.578 58.9409 266.573 40.8309 244.504C22.7208 222.434 12.4009 196.257 11.1327 169.172C9.86458 142.087 17.7031 115.268 33.6901 91.9926C49.677 68.7174 73.1198 49.9947 101.153 38.1135C129.185 26.2323 160.594 21.7072 191.538 25.0914C222.482 28.4757 251.621 39.6226 275.394 57.1696L245.834 87.4224C228.825 74.8678 207.977 66.8924 185.837 64.471C163.697 62.0496 141.225 65.2872 121.168 73.7881C101.111 82.2889 84.3377 95.6846 72.8993 112.338C61.4609 128.991 55.8526 148.18 56.7599 167.558C57.6673 186.937 65.051 205.667 78.0084 221.457C90.9659 237.247 108.936 249.414 129.721 256.47C150.506 263.526 173.207 265.166 195.047 261.189C216.888 257.212 236.922 247.791 252.701 234.076L284.991 262.141Z"/>
</mask>
<path d="M284.991 262.141C262.937 281.309 234.936 294.477 204.411 300.036C173.886 305.594 142.158 303.302 113.107 293.44C84.0565 283.578 58.9409 266.573 40.8309 244.504C22.7208 222.434 12.4009 196.257 11.1327 169.172C9.86458 142.087 17.7031 115.268 33.6901 91.9926C49.677 68.7174 73.1198 49.9947 101.153 38.1135C129.185 26.2323 160.594 21.7072 191.538 25.0914C222.482 28.4757 251.621 39.6226 275.394 57.1696L245.834 87.4224C228.825 74.8678 207.977 66.8924 185.837 64.471C163.697 62.0496 141.225 65.2872 121.168 73.7881C101.111 82.2889 84.3377 95.6846 72.8993 112.338C61.4609 128.991 55.8526 148.18 56.7599 167.558C57.6673 186.937 65.051 205.667 78.0084 221.457C90.9659 237.247 108.936 249.414 129.721 256.47C150.506 263.526 173.207 265.166 195.047 261.189C216.888 257.212 236.922 247.791 252.701 234.076L284.991 262.141Z" stroke="#FF0000" stroke-width="20" mask="url(#path-2-inside-1)"/>
</svg>
