<svg width="97" height="111" viewBox="0 0 97 111" fill="none" xmlns="http://www.w3.org/2000/svg">
<rect width="97" height="111" fill="#E5E5E5"/>
<rect width="97" height="111" rx="48.5" fill="white"/>
<mask id="path-2-inside-1" fill="white">
<path d="M80.6734 89.0876C74.4215 95.6143 66.4835 100.098 57.8299 101.991C49.1763 103.883 40.1819 103.103 31.9463 99.7448C23.7107 96.3868 16.5907 90.5965 11.4567 83.0819C6.32272 75.5673 3.39714 66.6539 3.03763 57.4314C2.67812 48.2089 4.90025 39.0769 9.43239 31.1516C13.9645 23.2263 20.6103 16.8513 28.5573 12.8057C36.5043 8.76009 45.4081 7.21929 54.1805 8.37163C62.9528 9.52397 71.2135 13.3195 77.9527 19.2943L69.5729 29.5954C64.7511 25.3206 58.8407 22.6049 52.5643 21.7804C46.2878 20.956 39.9172 22.0584 34.2313 24.9529C28.5454 27.8475 23.7904 32.4087 20.5478 38.0791C17.3051 43.7495 15.7152 50.2834 15.9724 56.8819C16.2297 63.4804 18.3229 69.8578 21.9962 75.2344C25.6695 80.611 30.7637 84.7538 36.6561 87.1564C42.5485 89.5591 48.9839 90.1175 55.1754 88.7633C61.3669 87.4091 67.0464 84.2011 71.5195 79.5313L80.6734 89.0876Z"/>
</mask>
<path d="M80.6734 89.0876C74.4215 95.6143 66.4835 100.098 57.8299 101.991C49.1763 103.883 40.1819 103.103 31.9463 99.7448C23.7107 96.3868 16.5907 90.5965 11.4567 83.0819C6.32272 75.5673 3.39714 66.6539 3.03763 57.4314C2.67812 48.2089 4.90025 39.0769 9.43239 31.1516C13.9645 23.2263 20.6103 16.8513 28.5573 12.8057C36.5043 8.76009 45.4081 7.21929 54.1805 8.37163C62.9528 9.52397 71.2135 13.3195 77.9527 19.2943L69.5729 29.5954C64.7511 25.3206 58.8407 22.6049 52.5643 21.7804C46.2878 20.956 39.9172 22.0584 34.2313 24.9529C28.5454 27.8475 23.7904 32.4087 20.5478 38.0791C17.3051 43.7495 15.7152 50.2834 15.9724 56.8819C16.2297 63.4804 18.3229 69.8578 21.9962 75.2344C25.6695 80.611 30.7637 84.7538 36.6561 87.1564C42.5485 89.5591 48.9839 90.1175 55.1754 88.7633C61.3669 87.4091 67.0464 84.2011 71.5195 79.5313L80.6734 89.0876Z" stroke="#FF0000" stroke-width="20" mask="url(#path-2-inside-1)"/>
</svg>
